<?xml version="1.0" encoding="iso-8859-1"?>
<!-- Uploaded to: SVG Repo, www.svgrepo.com, Generator: SVG Repo Mixer Tools -->
<svg version="1.1" id="Layer_1" xmlns="http://www.w3.org/2000/svg" xmlns:xlink="http://www.w3.org/1999/xlink" 
	 viewBox="0 0 511.998 511.998" xml:space="preserve">
<path style="fill:#8AE6A1;" d="M371.895,92.749c-3.899,9.916-1.846,21.632,6.169,29.647c8.016,8.016,19.731,10.068,29.647,6.169
	c3.899-9.916,1.846-21.632-6.169-29.647C393.527,90.902,381.812,88.849,371.895,92.749z"/>
<circle style="fill:#D9576D;" cx="410.346" cy="166.74" r="42.891"/>
<path style="opacity:0.15;fill:#333333;enable-background:new    ;" d="M386.986,166.743c0-20.326,14.145-37.336,33.124-41.757
	c-3.137-0.731-6.402-1.13-9.762-1.13c-23.686,0-42.886,19.201-42.886,42.886s19.201,42.886,42.886,42.886
	c3.36,0,6.624-0.399,9.762-1.13C401.13,204.079,386.986,187.068,386.986,166.743z"/>
<path style="fill:#FFCA66;" d="M252.362,9.971H108.757c-16.793,0-30.405,13.613-30.405,30.405v176.834h204.416V40.376
	C282.767,23.584,269.154,9.971,252.362,9.971z"/>
<path style="opacity:0.15;fill:#333333;enable-background:new    ;" d="M133.536,9.971h-24.779
	c-16.793,0-30.405,13.613-30.405,30.405v176.834h24.779V40.376C103.131,23.584,116.743,9.971,133.536,9.971z"/>
<g>
	<rect y="194.684" style="fill:#734734;" width="511.998" height="53.118"/>
	<rect x="426.408" y="373.602" style="fill:#734734;" width="44.22" height="128.425"/>
</g>
<rect x="426.408" y="373.602" style="opacity:0.15;fill:#333333;enable-background:new    ;" width="44.22" height="77.606"/>
<rect x="41.376" y="373.602" style="fill:#734734;" width="44.22" height="128.425"/>
<rect x="41.376" y="373.602" style="opacity:0.15;fill:#333333;enable-background:new    ;" width="44.22" height="77.606"/>
<rect x="17.882" y="247.802" style="fill:#B06D4F;" width="476.237" height="180.878"/>
<rect x="17.882" y="247.802" style="opacity:0.15;fill:#333333;enable-background:new    ;" width="476.237" height="22.527"/>
</svg>