<svg xmlns="http://www.w3.org/2000/svg" width="512" height="512" viewBox="0 0 512 512" version="1.1">
	<path d="M 292 0.526 C 291.175 0.688, 287.125 1.360, 283 2.020 C 248.434 7.554, 215.257 29.142, 194.927 59.330 C 180.361 80.958, 173.327 102.660, 172.302 129.133 C 171.435 151.537, 174.751 169.339, 183.493 189.203 C 195.918 217.434, 221.781 243.900, 249.120 256.358 C 258.068 260.436, 274.517 265.835, 280.486 266.653 L 284.722 267.234 285.355 275.367 C 285.703 279.840, 285.991 296.017, 285.994 311.316 C 285.998 328.566, 286.393 339.866, 287.035 341.066 C 288.003 342.874, 289.309 343, 307.023 343 L 325.976 343 326.238 305.327 L 326.500 267.655 334.500 265.928 C 379.711 256.171, 417.862 222.738, 432.908 179.688 C 438.447 163.840, 440.324 152.403, 440.324 134.500 C 440.324 116.289, 438.379 104.737, 432.582 88.520 C 421.507 57.532, 396.155 29.029, 366.500 14.224 C 349.101 5.538, 324.932 -0.068, 305.669 0.116 C 298.976 0.180, 292.825 0.364, 292 0.526 M 351.500 94.216 C 348.024 94.954, 344.152 98.403, 321.956 120.532 C 307.906 134.540, 295.778 146, 295.003 146 C 294.228 146, 287.948 140.419, 281.047 133.599 C 270.664 123.336, 267.731 120.991, 264.040 120.003 C 252.397 116.887, 241.946 127.475, 245.040 139.250 C 245.991 142.873, 249.207 146.552, 266.828 164.180 C 284.673 182.033, 288.026 184.956, 291.346 185.560 C 299.941 187.122, 300.967 186.343, 335.358 152.163 C 356.238 131.411, 367.861 119.122, 369.086 116.500 C 375.007 103.834, 365.133 91.323, 351.500 94.216 M 76.110 321.396 C 70.931 324.266, 71.073 321.922, 71.035 404.703 C 71.010 459.528, 71.324 482.617, 72.118 484.359 C 74.617 489.843, 76.832 490.176, 108.500 489.823 C 139.554 489.477, 140.630 489.303, 142.929 484.257 C 143.661 482.650, 144 457.519, 144 404.903 C 144 320.128, 144.233 323.323, 137.881 321.108 C 133.028 319.416, 79.230 319.666, 76.110 321.396 M 286.337 482.564 C 285.477 484.805, 286.846 496.698, 288.388 500.381 C 290.250 504.828, 297.205 510.760, 301.503 511.567 C 311.246 513.394, 319.386 509.521, 323.750 500.980 C 325.514 497.528, 326 494.893, 326 488.788 L 326 481 306.469 481 C 289.675 481, 286.853 481.219, 286.337 482.564" stroke="none" fill="black" fill-rule="evenodd"/>
</svg>